HIERARCHY
ROOT hip
{
	OFFSET 0.000000 0.000000 0.000000 
	CHANNELS 6 Xposition Yposition Zposition Xrotation Zrotation Yrotation
	JOINT abdomen
	{
		OFFSET 0.000000 3.402643 0.000000 
		CHANNELS 3 Xrotation Zrotation Yrotation
		JOINT chest
		{
			OFFSET 0.000000 8.438565 -0.680529 
			CHANNELS 3 Xrotation Zrotation Yrotation
			JOINT neck
			{
				OFFSET 0.000000 10.207942 -0.272212 
				CHANNELS 3 Xrotation Zrotation Yrotation
				JOINT head
				{
					OFFSET 0.000000 3.130431 0.000000 
					CHANNELS 3 Xrotation Zrotation Yrotation
					End Site
					{
						OFFSET 0.000000 3.130435 0.000000 
					}
				}
			}
			JOINT lCollar
			{
				OFFSET 3.470700 6.669187 -0.816635 
				CHANNELS 3 Yrotation Zrotation Xrotation
				JOINT lShldr
				{
					OFFSET 3.198488 0.000000 0.000000 
					CHANNELS 3 Zrotation Yrotation Xrotation
					JOINT lForeArm
					{
						OFFSET 10.139888 0.000000 0.000000 
						CHANNELS 3 Yrotation Zrotation Xrotation
						JOINT lHand
						{
							OFFSET 8.370511 0.000000 0.000000 
							CHANNELS 3 Zrotation Yrotation Xrotation
							End Site
							{
								OFFSET 4.083176 0.000000 0.000000 
							}
						}
					}
				}
			}
			JOINT rCollar
			{
				OFFSET -3.470700 6.669187 -0.816635 
				CHANNELS 3 Yrotation Zrotation Xrotation
				JOINT rShldr
				{
					OFFSET -3.198488 0.000000 0.000000 
					CHANNELS 3 Zrotation Yrotation Xrotation
					JOINT rForeArm
					{
						OFFSET -10.139888 0.000000 0.000000 
						CHANNELS 3 Yrotation Zrotation Xrotation
						JOINT rHand
						{
							OFFSET -8.370511 0.000000 0.000000 
							CHANNELS 3 Zrotation Yrotation Xrotation
							End Site
							{
								OFFSET -4.083176 0.000000 0.000000 
							}
						}
					}
				}
			}
		}
	}
	JOINT lThigh
	{
		OFFSET 5.308129 -1.633274 1.361059 
		CHANNELS 3 Xrotation Zrotation Yrotation
		JOINT lShin
		{
			OFFSET -2.041588 -20.007561 0.000000 
			CHANNELS 3 Xrotation Zrotation Yrotation
			JOINT lFoot
			{
				OFFSET 0.000000 -19.190928 -1.224953 
				CHANNELS 3 Xrotation Yrotation Zrotation
				End Site
				{
					OFFSET 0.000000 -2.449906 4.627600 
				}
			}
		}
	}
	JOINT rThigh
	{
		OFFSET -5.308129 -1.633274 1.361059 
		CHANNELS 3 Xrotation Zrotation Yrotation
		JOINT rShin
		{
			OFFSET 2.041588 -20.007561 0.000000 
			CHANNELS 3 Xrotation Zrotation Yrotation
			JOINT rFoot
			{
				OFFSET 0.000000 -19.190928 -1.224953 
				CHANNELS 3 Xrotation Yrotation Zrotation
				End Site
				{
					OFFSET 0.000000 -2.449906 4.627600 
				}
			}
		}
	}
}
MOTION
Frames: 8
Frame Time: 0.011111
5.129139 52.942554 -0.054927 2.014474 -11.584870 85.062744 4.675525 0.166249 -3.227086 -17.625456 -0.416111 -0.914144 -16.000671 6.152751 2.941974 27.771877 -9.862149 5.565906 -5.081978 -0.734958 0.324318 -62.025578 -33.436726 58.484901 -84.405556 3.535211 25.824139 8.524705 12.647240 -32.386116 6.722986 6.357456 -0.697881 53.043400 27.420988 17.572973 83.630409 -4.231113 25.081884 -8.534408 -12.637552 -134.683731 -8.063250 6.246180 12.255575 17.586618 -5.851069 -3.179919 -18.989981 -5.560862 -4.750584 -3.016830 -11.950781 -0.092216 -0.125816 5.940571 0.682111 -10.080681 3.274826 3.787740 
5.155237 52.941948 -0.016387 2.090242 -11.670616 85.119637 4.580153 0.076341 -3.053574 -17.654802 -0.331401 -0.851446 -16.078636 6.477712 3.308911 28.200960 -10.495069 6.237364 -5.081978 -0.734958 0.324318 -62.339825 -32.031841 57.750423 -83.902206 3.998080 25.327236 8.524705 12.647240 -32.923233 6.722986 6.357456 -0.697881 54.185719 25.893568 17.613674 83.571053 -4.283754 25.035810 -8.534408 -12.637552 -136.295059 -8.043921 6.187848 12.284825 17.473028 -5.852017 -3.170433 -18.948776 -5.588840 -4.764210 -3.054685 -11.995261 -0.171285 -0.125817 5.940571 0.682111 -10.068422 3.355357 3.804690 
5.191653 52.942554 0.023671 2.135312 -11.551609 85.126213 4.748230 0.008603 -2.847676 -17.791580 -0.228592 -0.787539 -16.046988 6.714922 3.650165 28.454521 -11.124462 6.855554 -5.081978 -0.734958 0.324318 -62.717892 -30.682510 57.130993 -83.348831 4.455405 24.834301 8.524705 12.647240 -33.421276 6.722986 6.357456 -0.697881 55.365910 24.440754 17.448185 83.430466 -4.396760 24.922506 -8.534408 -12.637552 -138.082184 -7.818140 6.166766 12.429105 17.408360 -5.862668 -3.146205 -18.915359 -5.723687 -4.795409 -2.879818 -12.017414 -0.188052 -0.125816 5.940571 0.682111 -10.081668 3.429730 3.808625 
5.214715 52.935574 0.058265 2.139429 -11.614797 85.384262 4.749087 -0.010063 -2.768126 -17.899027 -0.182072 -0.765607 -15.937830 6.924951 3.925992 28.517017 -11.672871 7.344594 -5.081978 -0.734958 0.324318 -62.954872 -29.506544 56.654263 -82.775604 4.879546 24.369177 8.524705 12.647240 -33.958382 6.722986 6.357456 -0.697881 56.587788 23.112267 17.082691 83.192909 -4.580616 24.719217 -8.534408 -12.637552 -140.006012 -7.818127 6.147251 12.350780 17.295458 -5.861070 -3.136320 -18.858274 -5.792556 -4.832239 -2.839992 -12.015084 -0.465480 -0.125817 5.940571 0.682111 -10.110999 3.528795 3.847072 
5.224730 52.930111 0.097109 2.204592 -11.785872 85.787384 4.600798 -0.129881 -2.846142 -17.947966 -0.055484 -0.770151 -15.898491 7.161802 4.167384 28.632727 -12.268691 7.767400 -5.081978 -0.734958 0.324318 -63.193230 -28.370188 56.140587 -82.213608 5.256641 23.943075 8.524705 12.647240 -34.378307 6.722986 6.357456 -0.697881 57.773354 21.928816 16.621584 82.885147 -4.806772 24.469788 -8.534408 -12.637552 -142.095840 -8.046726 6.064293 11.923249 17.220066 -5.871685 -3.120917 -18.801336 -5.747196 -4.812659 -2.927672 -12.071320 -0.879064 -0.125817 5.940571 0.682111 -10.089522 3.636534 3.844333 
5.254773 52.927685 0.135041 2.293545 -11.815073 85.945564 4.612257 -0.281904 -2.740708 -17.987082 0.040049 -0.727256 -15.917974 7.388086 4.385444 28.865602 -12.758140 8.133842 -5.081978 -0.734958 0.324318 -63.411018 -27.222176 55.532131 -81.567657 5.657772 23.496832 8.524705 12.647240 -34.612682 6.722986 6.357456 -0.697881 59.019405 20.881765 15.985059 82.480667 -5.089626 24.160006 -8.534408 -12.637552 -144.351700 -8.041986 5.970982 11.736713 17.202477 -5.862365 -3.117906 -18.801228 -5.720091 -4.796865 -2.890624 -12.147150 -1.051459 -0.126829 5.940178 0.662621 -10.133251 3.678386 3.866346 
5.273588 52.928291 0.170243 2.270534 -11.859456 86.177116 4.611663 -0.263752 -2.733405 -17.996866 0.069200 -0.726120 -15.859634 7.639053 4.615181 28.880701 -13.282857 8.545325 -5.081978 -0.734958 0.324318 -63.605015 -26.170235 54.844334 -80.791695 6.088023 22.976679 8.524705 12.647240 -35.003307 6.722986 6.357456 -0.697881 60.323582 19.921846 15.282180 82.055557 -5.364637 23.847103 -8.534408 -12.637552 -146.685684 -8.102131 6.002088 11.541903 17.179016 -5.870960 -3.117301 -18.780172 -5.720984 -4.796019 -2.830450 -12.101753 -1.298181 -0.126829 5.940178 0.662621 -10.189208 3.746607 3.880614 
5.286940 52.933453 0.197252 2.031205 -12.019374 86.499825 4.502273 0.036373 -2.699654 -17.977322 0.040555 -0.737007 -15.741682 7.836451 4.827728 28.703512 -13.812079 8.903285 -5.081978 -0.734958 0.324318 -63.731888 -25.180687 54.425999 -80.003914 6.481511 22.462929 8.524705 12.647240 -35.120495 6.722986 6.357456 -0.697881 61.541458 18.982908 14.572219 81.632416 -5.624640 23.544228 -8.534408 -12.637552 -148.873199 -8.306046 6.244854 11.465140 17.151197 -5.858633 -3.142197 -18.690702 -5.850608 -4.852909 -2.831196 -11.839552 -1.554407 -0.126828 5.940181 0.662621 -10.167081 3.844908 3.894957 
